<svg xmlns="http://www.w3.org/2000/svg" xmlns:xlink="http://www.w3.org/1999/xlink" width="1422.119" height="367.15" viewBox="0 0 1422.119 367.15"><defs><style>.a{fill:url(#a);}.b{fill:none;stroke:#fdc43f;stroke-width:2px;}</style><linearGradient id="a" x1="0.5" x2="0.5" y2="1" gradientUnits="objectBoundingBox"><stop offset="0" stop-color="#3c3a72"/><stop offset="0" stop-color="#f5dd82"/><stop offset="0.616" stop-color="#fff7e2"/><stop offset="1" stop-color="#fff7e2" stop-opacity="0"/></linearGradient></defs><g transform="translate(0.182 -434.923)"><path class="a" d="M610.5,441.843s-23.153-67.826-67.429-48.371S480.239,530.8,370.982,513.5,267.614,228.039,167.239,238.722,70.257,502.092-9.493,513.063s-48.588-73.9-100.976-80.2-44.37,81.044-92.961,80.2-69.044-51.457-136.4-51.846S-478.976,571.7-553.359,573.78s-64.283-3.979-128.567,0S-810.493,589.7-810.493,589.7v14.876H610.5Z" transform="translate(810.493 197.498)"/><path class="b" d="M-810.493,589.7s64.283-11.94,128.567-15.919,54.184,2.083,128.567,0,146.171-112.952,213.528-112.563,87.81,51,136.4,51.846,40.573-86.5,92.961-80.2,21.227,91.17,100.976,80.2S66.864,249.4,167.239,238.722,261.725,496.209,370.982,513.5s127.81-100.576,172.086-120.031S610.5,441.843,610.5,441.843" transform="translate(810.493 197.498)"/></g></svg>