<svg xmlns="http://www.w3.org/2000/svg" xmlns:xlink="http://www.w3.org/1999/xlink" width="1447.146" height="289.121" viewBox="0 0 1447.146 289.121"><defs><style>.a{fill:url(#a);}.b{fill:none;stroke:#fdc43f;stroke-width:2px;}</style><linearGradient id="a" x1="0.5" x2="0.5" y2="1" gradientUnits="objectBoundingBox"><stop offset="0" stop-color="#f5dd82"/><stop offset="0.66" stop-color="#fff7e2"/><stop offset="1" stop-color="#fff7e2" stop-opacity="0"/></linearGradient></defs><g transform="translate(28.235 -511.255)"><path class="a" d="M-521.456,499.969s-29.645,17.472-71.839-12.841S-680.259,287.916-782.86,297.5-904.346,469.38-1011.53,487.128s-127.56-74.7-207.8-71.6-135.475,86.88-244.652,101.795-145.114,18.235-290.091,22.807-213.808,19.475-213.808,19.475v25.633H-521.456Z" transform="translate(1939.86 215.137)"/><path class="b" d="M-521.456,499.969s-29.645,17.472-71.839-12.841S-680.259,287.916-782.86,297.5-904.346,469.38-1011.53,487.128s-127.56-74.7-207.8-71.6-135.475,86.88-244.652,101.795-145.114,18.235-290.091,22.807-213.808,19.475-213.808,19.475" transform="translate(1939.86 215.137)"/></g></svg>