<svg xmlns="http://www.w3.org/2000/svg" xmlns:xlink="http://www.w3.org/1999/xlink" width="1436.429" height="254.792" viewBox="0 0 1436.429 254.792"><defs><style>.a{fill:none;stroke:#fdc43f;stroke-width:2px;}.b{fill:url(#a);}</style><linearGradient id="a" x1="0.5" x2="0.5" y2="1" gradientUnits="objectBoundingBox"><stop offset="0" stop-color="#f5dd82"/><stop offset="0.655" stop-color="#fff7e2"/><stop offset="1" stop-color="#fff7e2" stop-opacity="0"/></linearGradient></defs><g transform="translate(16.691 -549.365)"><path class="a" d="M-2244.645,604.734c-40.864-2.5-62.352,12.589-142.922-23.648s-137-176.413-259.4-152.525-142,143.2-279.5,137.59-133.4-44.159-231.852-42.9S-3358.939,616.887-3488,619.358s-192.674-20.5-192.674-20.5" transform="translate(3664.322 124.456)"/><path class="b" d="M-2244.645,604.734c-40.864-2.5-62.352,12.589-142.922-23.648s-137-176.413-259.4-152.525-142,143.2-279.5,137.59-133.4-44.159-231.852-42.9S-3358.939,616.887-3488,619.358s-192.674-20.5-192.674-20.5V679.7h1436.029Z" transform="translate(3664.322 124.456)"/></g></svg>